<svg width="31" height="41" viewBox="0 0 31 41" fill="none" xmlns="http://www.w3.org/2000/svg">
<path d="M15.5 0C11.3906 0.00503783 7.45097 1.70365 4.54521 4.72324C1.63945 7.74282 0.00486442 11.8368 1.64904e-05 16.1071C-0.00490531 19.5969 1.09203 22.9919 3.12256 25.7714C3.12256 25.7714 3.54529 26.3498 3.61433 26.4333L15.5 41L27.3913 26.426C27.4533 26.3484 27.8774 25.7714 27.8774 25.7714L27.8789 25.767C29.9084 22.9887 31.0048 19.5953 31 16.1071C30.9951 11.8368 29.3605 7.74282 26.4548 4.72324C23.549 1.70365 19.6094 0.00503783 15.5 0ZM20.5727 23.4286L15.5 20.0739L10.4273 23.4286L11.2727 17.4631L7.04546 13.4319L12.9636 12.6895L15.5 7.32143L18.1942 12.691L23.9545 13.4319L19.7273 17.4631L20.5727 23.4286Z" fill="#1FB520"/>
</svg>
