<svg width="28" height="28" viewBox="0 0 28 28" fill="none" xmlns="http://www.w3.org/2000/svg">
<path d="M20.3611 14C20.3611 14.9358 19.6024 15.6944 18.6666 15.6944C17.7308 15.6944 16.9722 14.9358 16.9722 14C16.9722 13.0642 17.7308 12.3055 18.6666 12.3055C19.6024 12.3055 20.3611 13.0642 20.3611 14Z" stroke="black" stroke-width="0.5"/>
<path d="M11.2778 12.0555C12.25 12.0555 13.0289 11.5056 13.9284 10.6061C15.2717 9.26368 16.7125 8.16663 18.6667 8.16663C21.8882 8.16663 24.5 10.7784 24.5 14C24.5 17.2215 21.8882 19.8333 18.6667 19.8333H7.38889C5.24106 19.8333 3.5 18.0918 3.5 15.9444C3.5 13.797 5.24106 12.0555 7.38889 12.0555" stroke="black" stroke-width="0.5" stroke-miterlimit="10" stroke-linecap="round" stroke-linejoin="round"/>
<path d="M10.111 10.5H7.38878C4.3815 10.5 1.94434 12.9371 1.94434 15.9444C1.94434 18.9517 4.3815 21.3889 7.38878 21.3889H18.6666C22.7479 21.3889 26.0554 18.0814 26.0554 14C26.0554 9.91858 22.7479 6.61108 18.6666 6.61108C16.4526 6.61108 14.4704 7.58875 13.1171 9.13108C12.4047 9.97536 11.3033 10.5 10.111 10.5Z" stroke="black" stroke-width="0.5" stroke-miterlimit="10" stroke-linecap="round" stroke-linejoin="round"/>
<path d="M18.6666 15.9444C19.7405 15.9444 20.6111 15.0739 20.6111 14C20.6111 12.9261 19.7405 12.0555 18.6666 12.0555C17.5927 12.0555 16.7222 12.9261 16.7222 14C16.7222 15.0739 17.5927 15.9444 18.6666 15.9444Z" stroke="black" stroke-width="0.5" stroke-miterlimit="10" stroke-linecap="round" stroke-linejoin="round"/>
</svg>
