<svg width="28" height="28" viewBox="0 0 28 28" fill="none" xmlns="http://www.w3.org/2000/svg">
<g opacity="0.85">
<path d="M22.5705 4.86784C20.6248 3.72023 18.0563 3.08826 15.3383 3.08826H13.0992C10.3813 3.08826 7.81271 3.72023 5.86704 4.86784C3.77639 6.10094 2.625 7.7904 2.625 9.625V10.5H25.8125V9.625C25.8125 7.7904 24.6611 6.10094 22.5705 4.86784ZM4.52813 8.75C5.30212 6.55588 8.91324 4.83826 13.0994 4.83826H15.3384C19.5245 4.83826 23.1356 6.55588 23.9096 8.75H4.52813Z" fill="#2D2D2D"/>
<path d="M2.625 16.625H25.8125V18.375H2.625V16.625Z" fill="#2D2D2D"/>
<path d="M21.175 12.2522C19.8195 12.2522 19.1094 12.5872 18.4829 12.8827C17.9341 13.1415 17.5007 13.3459 16.5373 13.3459C15.5739 13.3459 15.1406 13.1415 14.5918 12.8827C13.9653 12.5874 13.2552 12.2522 11.8998 12.2522C10.5445 12.2522 9.83436 12.5872 9.20786 12.8827C8.65918 13.1415 8.22583 13.3459 7.26251 13.3459C6.29919 13.3459 5.86579 13.1415 5.31711 12.8827C4.69061 12.5874 3.9805 12.2522 2.62512 12.2522V14.0022C3.58844 14.0022 4.02184 14.2066 4.57052 14.4655C5.19702 14.7608 5.90714 15.0959 7.26251 15.0959C8.61789 15.0959 9.32795 14.761 9.95445 14.4655C10.5031 14.2066 10.9365 14.0022 11.8998 14.0022C12.8632 14.0022 13.2966 14.2066 13.8452 14.4655C14.4718 14.7608 15.1819 15.0959 16.5373 15.0959C17.8927 15.0959 18.6028 14.761 19.2294 14.4655C19.7781 14.2066 20.2115 14.0022 21.175 14.0022C22.1384 14.0022 22.5718 14.2066 23.1205 14.4655C23.7471 14.7608 24.4572 15.0959 25.8126 15.0959V13.3459C24.8492 13.3459 24.4158 13.1415 23.8671 12.8827C23.2403 12.5872 22.5302 12.2522 21.175 12.2522Z" fill="#2D2D2D"/>
<path d="M2.625 24.5C2.62541 24.848 2.76382 25.1816 3.00987 25.4276C3.25592 25.6737 3.58953 25.8121 3.9375 25.8125H24.5C24.848 25.8121 25.1816 25.6737 25.4276 25.4276C25.6737 25.1816 25.8121 24.848 25.8125 24.5V20.125H2.625V24.5ZM4.375 21.875H24.0625V24.0625H4.375V21.875Z" fill="#2D2D2D"/>
</g>
</svg>
