<svg width="28" height="28" viewBox="0 0 28 28" fill="none" xmlns="http://www.w3.org/2000/svg">
<path d="M27.1223 9.80744C27.1005 8.22325 27.0948 7.79713 26.5413 7.399L26.5186 7.38281C26.2762 7.19906 25.6493 6.86875 25.3907 6.73575C21.9686 4.907 18.1291 3.9375 14.2992 3.9375C13.5384 3.9375 12.9425 3.97425 12.5479 3.99919C12.3777 4.00969 12.25 4.01844 12.169 4.01844C11.2931 4.01844 10.8473 4.30981 10.4982 4.58237C10.4658 4.60775 10.4374 4.63269 10.4063 4.6515C10.3818 4.66419 10.3525 4.67338 10.3236 4.68475C9.87914 4.85625 9.43114 5.12925 9.16514 5.95875C9.07414 6.24356 8.44021 6.53012 8.19171 6.53012C7.57833 6.53012 7.12158 6.8705 6.71908 7.17062C6.57864 7.27562 6.43339 7.38369 6.28333 7.47775C5.76708 7.79931 5.57983 8.08238 5.45908 8.44769C5.40439 8.44272 5.3495 8.44009 5.29458 8.43981C5.0684 8.43981 4.86846 8.49319 4.69827 8.59819C4.1794 8.72156 3.86658 9.06544 3.63864 9.75319C3.51897 9.70237 3.39023 9.67632 3.26021 9.67663C2.77414 9.67663 2.42721 10.0188 2.12139 10.3206C2.02733 10.4129 1.93021 10.5092 1.85671 10.5674C1.83046 10.5884 1.80333 10.5993 1.72633 10.6282C1.50933 10.7087 0.850458 10.9541 0.890708 11.9092C0.913458 12.4259 0.89027 13.7187 0.89027 13.7318C0.89027 14.3622 1.58502 14.7188 1.58633 15.1616C1.58721 15.4035 0.982583 15.3991 0.982583 16.5353C0.982583 16.8236 1.00183 19.3725 1.00183 19.6735C1.00183 20.5546 1.81208 20.9357 1.41221 20.9825C0.924833 21.0402 0.85352 21.9918 0.881083 22.7316C0.885458 22.8401 0.889395 22.9394 0.889395 23.0182C0.88852 23.7037 1.37983 24.0625 1.86546 24.0625C2.06146 24.0625 2.23121 24.0091 2.36727 23.9658C2.41627 23.9505 2.49021 23.9273 2.51821 23.9238C2.7479 23.8936 7.62689 23.1779 8.00096 23.0934C8.33608 23.0182 8.40302 22.3068 9.07765 22.2014C9.48802 22.1375 9.73783 22.792 10.2186 22.792C10.3188 22.792 15.428 22.0049 16.0575 21.9043C16.9745 21.7573 16.6158 21.2262 17.1097 21.1943C17.3871 21.1763 17.8504 21.5429 18.326 21.5429C18.5268 21.5429 18.7674 21.5171 19.1559 21.4546C19.9845 21.3198 25.6878 20.4597 25.7455 20.4509C25.7998 20.4417 25.8335 20.4382 25.8641 20.4347C27.0055 20.3044 27.0055 19.3156 27.0055 18.725C27.0055 18.1423 27.0291 16.8013 27.0545 15.3807C27.0935 13.2488 27.1359 10.8334 27.1223 9.80744ZM26.1856 18.7246C26.1856 19.7024 26.022 19.5698 25.6243 19.6381C25.6243 19.6381 19.8681 20.5061 19.026 20.6439C18.7022 20.6959 18.4856 20.7217 18.3268 20.7217C18.2748 20.7217 18.2319 20.7169 18.1903 20.7117C17.752 20.6128 18.007 19.8091 17.1364 19.9762C16.1805 20.1596 16.0571 21.0963 16.0553 21.112C15.9783 21.147 15.855 21.1645 15.5859 21.1921C14.913 21.2594 11.5521 21.7761 10.7887 21.8956C10.6443 21.8413 10.4558 21.7293 10.2099 21.5167C9.38871 20.8084 8.4739 20.8084 8.15846 21.3933C7.84258 21.9782 7.69339 22.1423 7.37227 22.379C7.06821 22.4481 2.76277 23.0641 2.41233 23.1101C2.20671 23.1368 2.00108 23.2422 1.86546 23.2422C1.76964 23.2422 1.70927 23.1892 1.70927 23.0186C1.70927 22.673 1.64846 21.9861 1.75215 21.7166C1.93283 21.6147 2.45171 21.8024 2.47752 21.1124C2.50946 20.2786 1.85189 19.6547 1.84839 19.6512C1.81689 19.443 1.80197 19.2326 1.80377 19.0221C1.80377 17.9283 1.77227 16.8293 1.83133 16.4229C1.98402 16.1044 2.32439 16.0996 2.69846 15.7574C3.20421 15.2941 3.23483 14.3093 2.47927 14.2446C2.13714 14.2144 1.94815 14.1536 1.8379 14.0945C1.75303 13.999 1.70739 13.8749 1.71014 13.7471C1.71014 13.7471 1.73421 12.4219 1.71014 11.8751C1.68696 11.3264 1.99146 11.5093 2.36552 11.2123C2.68227 10.9616 3.03183 10.4991 3.25977 10.4987C3.30133 10.4987 3.33896 10.5144 3.37177 10.5499C3.47283 10.6597 3.64433 10.7905 3.82633 10.7905C4.02321 10.7905 4.23189 10.6374 4.37758 10.1391C4.65889 9.17962 4.89252 9.499 5.10339 9.317C5.15196 9.275 5.21846 9.26231 5.29458 9.26231C5.41402 9.26231 5.55752 9.29425 5.69489 9.29425C5.84715 9.29425 5.99152 9.25488 6.08646 9.08862C6.32139 8.67781 6.13283 8.54087 6.71821 8.176C7.21039 7.86844 7.57046 7.50225 7.96464 7.392C8.45333 7.52894 9.00546 7.77875 10.0778 6.73181C10.5971 6.22475 9.76671 6.29869 10.2235 5.69669C10.4151 5.4915 10.629 5.47138 10.8132 5.36681C11.0941 5.20713 11.3045 4.84137 12.1699 4.84137C12.4451 4.84137 13.1971 4.76044 14.3001 4.76044C15.1961 4.76044 16.3283 4.81688 17.6229 5.01113C17.972 5.10738 22.309 6.31356 24.062 7.35525C25.28 8.078 25.3443 8.17994 25.1864 8.40525C25.0285 8.63144 24.6413 8.60169 21.6352 9.24262C21.0748 9.36119 20.6578 9.39575 20.6727 9.53444C20.6885 9.67312 21.5407 9.45831 22.4245 9.38831C23.3078 9.31875 25.8798 8.78019 26.0693 9.01075C26.1651 9.12756 26.2915 10.0511 26.3042 10.6824C26.2906 12.964 26.1856 17.4703 26.1856 18.7246Z" fill="black"/>
<path d="M16.4116 10.5455C16.0086 10.3841 16.1272 9.7611 16.2807 9.91116C16.4347 10.0612 16.5061 10.2222 16.9081 10.2113C17.3106 10.1999 19.205 9.62241 19.2872 9.94572C19.3699 10.269 20.2931 10.6033 20.1272 10.374C19.9623 10.1448 20.0564 9.98028 20.2099 9.7611C20.3635 9.54147 20.5057 9.41372 19.9623 9.3446C19.4172 9.27591 19.2754 9.48328 19.2632 9.58697C19.2514 9.69153 17.5001 9.89891 17.1916 9.94572C16.8849 9.99122 16.8136 10.0035 16.7305 9.88797C16.6482 9.77247 16.6592 9.4601 15.5707 9.4601C14.4822 9.4601 14.7779 9.94528 14.9079 10.1076C15.0378 10.2686 14.6476 10.3386 13.997 10.4187C13.3456 10.5 7.2035 11.424 6.955 11.4468C6.70606 11.47 6.08 11.0775 5.73612 11.263C5.39312 11.4468 5.57031 11.69 5.16737 11.7473C4.99062 11.7723 2.68718 12.1052 2.328 12.1638C1.16687 12.3507 3.30756 12.2605 4.02943 12.1918C4.75131 12.1218 5.93737 12.1582 6.1745 11.9272C6.41162 11.6962 6.79706 11.774 7.14093 11.7815C7.48306 11.7885 14.494 10.5692 14.8961 10.5005C15.299 10.4313 15.299 10.9047 15.6774 11.0088C16.0563 11.1121 16.8136 10.7078 16.4116 10.5455Z" fill="black"/>
<path d="M9.26847 13.0196C8.22065 12.751 6.74453 13.2095 6.27465 14.5386C6.1574 14.8698 6.10009 15.2548 6.13115 15.6971C6.28822 17.917 9.66003 17.2283 10.2874 15.6971C10.7293 14.6208 10.7687 13.93 10.2423 13.4768C10.0205 13.2856 9.7099 13.1329 9.26847 13.0196Z" fill="black"/>
<path d="M16.4168 13.8443C16.1185 14.2813 15.9841 14.7718 16.1806 15.281C16.4706 16.0309 17.3872 16.4741 18.341 16.4741C19.6701 16.4741 21.081 15.0045 20.7354 14.2665C19.8026 12.275 16.944 13.0734 16.4168 13.8443Z" fill="black"/>
<path d="M11.501 19.0229C11.3133 19.953 12.2399 20.3826 13.1937 20.3826C14.5228 20.3826 15.505 19.495 15.1598 18.7569C14.2266 16.7658 11.7293 17.8928 11.501 19.0229Z" fill="black"/>
<path d="M5.30871 18.8156C4.20621 18.8156 3.39115 19.5326 3.67771 20.1276C4.45209 21.735 6.52321 20.8259 6.71309 19.9132C6.86884 19.1629 6.10015 18.8156 5.30871 18.8156Z" fill="black"/>
<path d="M23.3825 16.3109C22.3496 16.3109 21.5857 17.196 21.8539 17.9314C22.5793 19.9155 24.5209 18.7929 24.6985 17.6667C24.8442 16.7397 24.1236 16.3109 23.3825 16.3109Z" fill="black"/>
<path d="M24.3391 11.2791C23.8605 10.2694 21.5509 10.3298 21.3221 11.4594C21.134 12.3891 22.0606 12.8196 23.0144 12.8196C24.3435 12.8196 24.6878 12.015 24.3391 11.2791Z" fill="black"/>
<path d="M19.1165 8.59474C20.4456 8.59474 21.5035 8.38299 21.1548 7.64668C20.6761 6.63693 18.5779 6.65837 17.8088 7.61299C17.2142 8.35193 18.1631 8.59474 19.1165 8.59474Z" fill="black"/>
<path d="M9.94779 10.122C11.2769 10.122 12.3352 9.91021 11.9865 9.1739C11.5079 8.16415 9.40923 8.18559 8.64054 9.14021C8.04554 9.87915 8.99448 10.122 9.94779 10.122Z" fill="black"/>
<path d="M13.7962 7.40958C15.1253 7.40958 15.9242 7.10989 15.4368 6.45714C14.8217 5.63202 13.4116 5.95271 12.4885 6.42827C11.6459 6.86227 12.8425 7.40958 13.7962 7.40958Z" fill="black"/>
</svg>
