<svg width="70" height="70" viewBox="0 0 70 70" fill="none" xmlns="http://www.w3.org/2000/svg">
<path d="M8.75 35H35V39.375H8.75V35Z" fill="#F9C744"/>
<path d="M4.375 24.0625H26.25V28.4375H4.375V24.0625Z" fill="#F9C744"/>
<path d="M65.4475 36.3256L58.885 21.0131C58.7166 20.6195 58.4363 20.2841 58.0789 20.0484C57.7215 19.8128 57.3028 19.6873 56.8747 19.6875H50.3122V15.3125C50.3122 14.7323 50.0817 14.1759 49.6715 13.7657C49.2613 13.3555 48.7049 13.125 48.1247 13.125H13.1247V17.5H45.9372V44.9662C44.9404 45.545 44.0681 46.3155 43.3705 47.233C42.6729 48.1506 42.1639 49.1972 41.8728 50.3125H28.1266C27.5941 48.2504 26.3279 46.4533 24.5653 45.2581C22.8027 44.0628 20.6646 43.5514 18.5519 43.8197C16.4392 44.0881 14.4968 45.1178 13.089 46.7157C11.6811 48.3137 10.9044 50.3703 10.9044 52.5C10.9044 54.6297 11.6811 56.6863 13.089 58.2843C14.4968 59.8822 16.4392 60.9119 18.5519 61.1803C20.6646 61.4486 22.8027 60.9372 24.5653 59.7419C26.3279 58.5467 27.5941 56.7496 28.1266 54.6875H41.8728C42.3487 56.5649 43.4369 58.23 44.9655 59.4194C46.494 60.6089 48.3754 61.2547 50.3122 61.2547C52.249 61.2547 54.1304 60.6089 55.6589 59.4194C57.1874 58.23 58.2757 56.5649 58.7516 54.6875H63.4372C64.0174 54.6875 64.5738 54.457 64.984 54.0468C65.3942 53.6366 65.6247 53.0802 65.6247 52.5V37.1875C65.6248 36.8912 65.5645 36.5979 65.4475 36.3256ZM19.6872 56.875C18.8219 56.875 17.976 56.6184 17.2566 56.1377C16.5371 55.6569 15.9764 54.9737 15.6452 54.1742C15.3141 53.3748 15.2274 52.4951 15.3963 51.6465C15.5651 50.7978 15.9817 50.0183 16.5936 49.4064C17.2055 48.7946 17.985 48.3779 18.8337 48.2091C19.6823 48.0403 20.562 48.1269 21.3614 48.458C22.1609 48.7892 22.8441 49.3499 23.3249 50.0694C23.8056 50.7888 24.0622 51.6347 24.0622 52.5C24.061 53.66 23.5997 54.7721 22.7795 55.5923C21.9593 56.4125 20.8472 56.8738 19.6872 56.875ZM50.3122 24.0625H55.4309L60.1209 35H50.3122V24.0625ZM50.3122 56.875C49.4469 56.875 48.601 56.6184 47.8816 56.1377C47.1621 55.6569 46.6014 54.9737 46.2702 54.1742C45.9391 53.3748 45.8525 52.4951 46.0213 51.6465C46.1901 50.7978 46.6067 50.0183 47.2186 49.4064C47.8305 48.7946 48.61 48.3779 49.4587 48.2091C50.3073 48.0403 51.187 48.1269 51.9864 48.458C52.7859 48.7892 53.4691 49.3499 53.9499 50.0694C54.4306 50.7888 54.6872 51.6347 54.6872 52.5C54.686 53.66 54.2247 54.7721 53.4045 55.5923C52.5843 56.4125 51.4722 56.8738 50.3122 56.875ZM61.2497 50.3125H58.7516C58.2697 48.4388 57.1797 46.7779 55.6524 45.5903C54.1251 44.4026 52.2469 43.7554 50.3122 43.75V39.375H61.2497V50.3125Z" fill="#F9C744"/>
</svg>
