<svg width="28" height="28" viewBox="0 0 28 28" fill="none" xmlns="http://www.w3.org/2000/svg">
<g opacity="0.85" clip-path="url(#clip0)">
<path d="M14 19.25C15.3924 19.25 16.7277 18.6969 17.7123 17.7123C18.6969 16.7277 19.25 15.3924 19.25 14C19.25 12.6076 18.6969 11.2723 17.7123 10.2877C16.7277 9.30312 15.3924 8.75 14 8.75C12.6076 8.75 11.2723 9.30312 10.2877 10.2877C9.30312 11.2723 8.75 12.6076 8.75 14C8.75 15.3924 9.30312 16.7277 10.2877 17.7123C11.2723 18.6969 12.6076 19.25 14 19.25Z" fill="#2D2D2D"/>
<path d="M24.4948 9.04751C24.5516 7.37868 24.1297 5.72845 23.2789 4.29165C22.4282 2.85486 21.184 1.6915 19.6934 0.938939C18.2028 0.186377 16.528 -0.123964 14.8668 0.0445604C13.2055 0.213085 11.6272 0.853436 10.3181 1.89001C8.52194 1.56202 6.66822 1.80411 5.01657 2.58235C3.36493 3.3606 1.9981 4.63602 1.10758 6.22994C0.21705 7.82385 -0.152562 9.65642 0.0505179 11.4709C0.253598 13.2854 1.0192 14.9909 2.24006 16.3485C1.57582 18.2366 1.57896 20.2953 2.24897 22.1814C2.91897 24.0674 4.21533 25.6668 5.92185 26.7127C7.62836 27.7586 9.64187 28.1878 11.6266 27.9288C13.6112 27.6697 15.4471 26.7381 16.8281 25.2893C17.8962 25.9712 19.1496 26.305 20.4154 26.2446C21.6812 26.1843 22.8972 25.7328 23.8957 24.9525C24.8942 24.1721 25.626 23.1012 25.9903 21.8874C26.3546 20.6736 26.3335 19.3768 25.9298 18.1755C26.6827 17.6011 27.2663 16.8338 27.6187 15.9549C27.9712 15.0759 28.0794 14.1181 27.932 13.1826C27.7846 12.2472 27.387 11.369 26.7813 10.6411C26.1756 9.91314 25.3844 9.36252 24.4913 9.04751H24.4948ZM22.7448 8.98801C22.7323 9.36031 22.839 9.72688 23.0492 10.0344C23.2595 10.3419 23.5624 10.5743 23.9138 10.6978C24.5092 10.908 25.0366 11.2753 25.4403 11.7608C25.844 12.2463 26.1089 12.8319 26.207 13.4556C26.3051 14.0794 26.2327 14.718 25.9976 15.304C25.7624 15.8899 25.3731 16.4014 24.8711 16.7843C24.5807 17.006 24.3671 17.3131 24.2601 17.6624C24.153 18.0117 24.158 18.3857 24.2743 18.732C24.5634 19.5902 24.5791 20.517 24.3192 21.3844C24.0593 22.2519 23.5366 23.0174 22.8233 23.5752C22.1099 24.1331 21.241 24.4558 20.3364 24.4989C19.4319 24.5419 18.5362 24.3033 17.7731 23.8158C17.4312 23.5972 17.024 23.5042 16.6211 23.5527C16.2182 23.6012 15.8448 23.7882 15.5646 24.0818C14.4601 25.242 12.9912 25.9884 11.4028 26.1963C9.8145 26.4042 8.20292 26.0611 6.83706 25.2242C5.4712 24.3872 4.43371 23.1072 3.89775 21.5976C3.36178 20.0881 3.35977 18.4404 3.89206 16.9295C3.99609 16.6332 4.01848 16.3144 3.9569 16.0065C3.89532 15.6986 3.75203 15.413 3.54206 15.1795C2.56504 14.0934 1.95229 12.7289 1.78967 11.2771C1.62706 9.82535 1.92272 8.35907 2.63524 7.08375C3.34776 5.80844 4.44142 4.788 5.76298 4.16542C7.08453 3.54285 8.56776 3.34934 10.0048 3.61201C10.2496 3.65656 10.5011 3.64839 10.7426 3.58803C10.984 3.52768 11.2098 3.41653 11.4048 3.26201C12.4522 2.43307 13.7149 1.92112 15.0439 1.78659C16.3728 1.65206 17.7125 1.90057 18.9048 2.50279C20.0971 3.105 21.0922 4.03577 21.7726 5.18522C22.453 6.33466 22.7904 7.65479 22.7448 8.98976V8.98801Z" fill="#2D2D2D"/>
</g>
<defs>
<clipPath id="clip0">
<rect width="28" height="28" fill="white"/>
</clipPath>
</defs>
</svg>
