<svg width="70" height="53" viewBox="0 0 70 53" fill="none" xmlns="http://www.w3.org/2000/svg">
<g clip-path="url(#clip0)">
<path d="M67.8125 43.75H2.1875C1.59505 43.75 1.08236 43.5335 0.649414 43.1006C0.216471 42.6676 0 42.1549 0 41.5625C0 32.9948 2.65462 25.6917 7.96387 19.6533C13.2731 13.6149 20.0977 9.98047 28.4375 8.75C29.0299 8.75 29.5426 8.53353 29.9756 8.10059C30.4085 7.66764 30.625 7.15495 30.625 6.5625C30.625 5.97005 30.4085 5.45736 29.9756 5.02441C29.5426 4.59147 29.0299 4.375 28.4375 4.375C27.8451 4.375 27.3324 4.15853 26.8994 3.72559C26.4665 3.29264 26.25 2.77995 26.25 2.1875C26.25 1.59505 26.4665 1.08236 26.8994 0.649414C27.3324 0.216471 27.8451 0 28.4375 0H41.5625C42.1549 0 42.6676 0.216471 43.1006 0.649414C43.5335 1.08236 43.75 1.59505 43.75 2.1875C43.75 2.77995 43.5335 3.29264 43.1006 3.72559C42.6676 4.15853 42.1549 4.375 41.5625 4.375C40.9701 4.375 40.4574 4.59147 40.0244 5.02441C39.5915 5.45736 39.375 5.97005 39.375 6.5625C39.375 7.15495 39.5915 7.66764 40.0244 8.10059C40.4574 8.53353 40.9701 8.75 41.5625 8.75C49.9023 9.98047 56.7269 13.6149 62.0361 19.6533C67.3454 25.6917 70 32.9948 70 41.5625C70 42.1549 69.7835 42.6676 69.3506 43.1006C68.9176 43.5335 68.4049 43.75 67.8125 43.75ZM2.1875 48.125H67.8125C68.4049 48.125 68.9176 48.3415 69.3506 48.7744C69.7835 49.2074 70 49.7201 70 50.3125C70 50.9049 69.7835 51.4176 69.3506 51.8506C68.9176 52.2835 68.4049 52.5 67.8125 52.5H2.1875C1.59505 52.5 1.08236 52.2835 0.649414 51.8506C0.216471 51.4176 0 50.9049 0 50.3125C0 49.7201 0.216471 49.2074 0.649414 48.7744C1.08236 48.3415 1.59505 48.125 2.1875 48.125Z" fill="#F9C744"/>
</g>
<defs>
<clipPath id="clip0">
<rect width="70" height="52.5" fill="white"/>
</clipPath>
</defs>
</svg>
