<svg width="70" height="70" viewBox="0 0 70 70" fill="none" xmlns="http://www.w3.org/2000/svg">
<path d="M63.0957 19.3868C62.1794 17.2651 60.8582 15.3426 59.206 13.7266C57.5527 12.1059 55.6033 10.8179 53.4639 9.93267C51.2454 9.01113 48.8661 8.53944 46.4639 8.54497C43.0937 8.54497 39.8057 9.46782 36.9482 11.211C36.2646 11.628 35.6152 12.086 35 12.585C34.3848 12.086 33.7353 11.628 33.0518 11.211C30.1943 9.46782 26.9062 8.54497 23.5361 8.54497C21.1094 8.54497 18.7578 9.00981 16.5361 9.93267C14.3896 10.8213 12.4551 12.0997 10.7939 13.7266C9.13962 15.3407 7.81811 17.2638 6.9043 19.3868C5.9541 21.5948 5.46875 23.9395 5.46875 26.3526C5.46875 28.629 5.93359 31.001 6.85645 33.4141C7.62891 35.4307 8.73633 37.5225 10.1514 39.6348C12.3936 42.9776 15.4766 46.4639 19.3047 49.9981C25.6484 55.8565 31.9307 59.9034 32.1973 60.0674L33.8174 61.1065C34.5352 61.5645 35.458 61.5645 36.1758 61.1065L37.7959 60.0674C38.0625 59.8965 44.3379 55.8565 50.6885 49.9981C54.5166 46.4639 57.5996 42.9776 59.8418 39.6348C61.2568 37.5225 62.3711 35.4307 63.1367 33.4141C64.0596 31.001 64.5244 28.629 64.5244 26.3526C64.5312 23.9395 64.0459 21.5948 63.0957 19.3868Z" fill="#F9C744"/>
</svg>
